<svg id="visual" viewBox="0 0 900 600" width="900" height="600" xmlns="http://www.w3.org/2000/svg" xmlns:xlink="http://www.w3.org/1999/xlink" version="1.1"><g transform="translate(411.11957744545487 292.2793554861286)"><path d="M154.2 -194.7C200.6 -178.5 239.7 -134.5 260.3 -82C280.9 -29.5 283.1 31.6 263.5 83.7C243.9 135.7 202.5 178.7 154.9 199.9C107.4 221.1 53.7 220.6 3.1 216.2C-47.4 211.9 -94.8 203.9 -126.4 177.4C-157.9 151 -173.6 106.3 -184.8 62.3C-195.9 18.3 -202.6 -24.8 -197.6 -71.6C-192.6 -118.4 -175.9 -168.8 -141.1 -188.7C-106.2 -208.7 -53.1 -198.1 0.4 -198.6C53.9 -199.2 107.8 -210.8 154.2 -194.7" fill="#e0eef9"></path></g></svg>