<svg width="100%" height="100%" viewBox="0 0 350 178.05316192088145" class="looka-1j8o68f">
<g id="SvgjsG7739" featurekey="nameFeature-0" transform="matrix(2.1145478413499124,0,0,2.1145478413499124,-2.368293340321106,-25.374576112788915)" fill="#0056d2"><path d="M1.12 40 l0 -1.08 c1.2 -1.4 1.92 -3.32 1.92 -5.24 l0 -15.32 c0 -1.92 -0.72 -3.8 -1.88 -5.16 l0 -1.2 l5.88 0 l0 21.72 c0 1.88 0.72 3.8 1.96 5.2 l0 1.08 l-7.88 0 z M27.92 33.88 l2.96 0 c-1.4 3.8 -5.08 6.52 -9.52 6.52 c-5.64 0 -10.12 -4.52 -10.12 -9.96 c0 -5.56 4.48 -10.08 10.12 -10.08 c5.56 0 10.08 4.4 10.16 9.88 l-16.24 0 c0.16 0.48 0.24 1 0.4 1.56 c1.28 4.4 4.32 7.56 7.4 7.56 c2.88 0 4.44 -2.72 4.84 -5.48 z M15.080000000000002 28.6 l12.28 0 c-1.36 -4.16 -4.56 -6.8 -7.56 -6.8 c-3.04 0 -4.76 2.92 -4.76 5.92 c0 0.28 0 0.6 0.04 0.88 z M49.68 40 l-1.08 -0.28 c-1.8 -0.48 -3.76 -0.48 -5.44 0.04 c-0.68 0.2 -1.32 0.24 -1.96 0.24 c-3.92 0 -7.04 -3.08 -7.04 -6.96 c0 -3.8 3.12 -6.92 7.04 -6.92 c1.56 0 2.96 0.48 4.04 1.24 l0 -0.04 s0.32 -4.88 -1.84 -5.48 c-2.24 -0.64 -3.04 0.68 -4.68 3.16 l-3.36 -0.04 c1.04 -2.64 3.08 -4.48 5.96 -4.48 c1.08 0 2.2 0.2 3.28 0.52 c0 0 5.08 1.56 5.08 6.32 l0 12.68 z M37.4 34.04 c0.92 3 3.2 5.12 5.52 4.6 c2.24 -0.52 3.28 -3.44 2.36 -6.56 c-0.88 -2.96 -3.48 -5.08 -5.72 -4.52 c-2.28 0.56 -3.08 3.44 -2.16 6.48 z M52.96 40 l0 -1 c1.36 -1.48 2.04 -3.32 2.04 -5.32 l0 -6.6 c0 -1.96 -0.68 -3.84 -2.04 -5.24 l0 -1.16 l6.44 0 l0 2.08 c1.24 -1.24 3.6 -2.2 5.24 -2.2 c1.72 0 2.92 0.64 2.92 0.64 l-0.84 3.64 s-1.8 -1.48 -4 -1.48 c-2.92 0 -3.32 1.96 -3.32 2.48 l0 7.84 c0 2 0.76 3.84 2.04 5.32 l0 1 l-8.48 0 z M69.39999999999999 40 l0 -1.08 c1.32 -1.4 2.04 -3.32 2.04 -5.24 l0 -6.64 c0 -1.96 -0.72 -3.84 -2.04 -5.24 l0 -1.12 l6.36 0 l0 2.24 c1.36 -0.76 2.92 -1.24 4.36 -1.24 c4.68 0 7.24 2.84 7.24 9.76 l0 2.24 c0 1.92 0.76 3.84 2.12 5.24 l0 1.08 l-8.56 0 l0 -1.08 c1.36 -1.4 2.12 -3.32 2.12 -5.24 l0 -4.84 c0 -3.12 -2.84 -6.2 -5.64 -5.44 c-1 0.28 -1.64 1.24 -1.64 2.28 l0 8.04 c0 1.88 0.8 3.8 2.08 5.2 l0 1.08 l-8.44 0 z M91.44 40 l0 -1.08 c1.2 -1.4 1.92 -3.32 1.92 -5.24 l0 -15.32 c0 -1.92 -0.72 -3.8 -1.88 -5.16 l0 -1.2 l5.88 0 l0 21.72 c0 1.88 0.72 3.8 1.96 5.2 l0 1.08 l-7.88 0 z M117.32 39.12 c-1.56 0.72 -3.28 1.08 -5.08 1.08 c-5.52 0 -10.44 -3.84 -10.44 -9.84 c0 -6.08 4.92 -9.92 10.44 -9.92 c1.8 0 3.52 0.4 5.08 1.12 c1.48 -0.72 3.16 -1.12 4.96 -1.12 c5.6 0 10.64 3.64 10.64 9.92 c0 6.16 -5.04 9.84 -10.64 9.84 c-1.8 0 -3.48 -0.36 -4.96 -1.08 z M118.8 22.4 c2.48 1.68 4.12 4.4 4.12 7.96 c0 2.92 -1.16 5.28 -2.92 6.96 c1.2 1 2.52 1.56 3.8 1.56 c3.2 0 4.76 -3.32 4.76 -6.36 c0 -5.8 -4.16 -10.6 -7.72 -10.6 c-0.68 0 -1.44 0.16 -2.04 0.48 z M115.96 38.32 c-2.48 -1.72 -4.12 -4.44 -4.12 -7.96 c0 -2.84 1.04 -5.2 2.76 -6.88 c-1.2 -1 -2.52 -1.56 -3.84 -1.56 c-2.92 0 -4.48 2.56 -4.48 5.88 c0 5.92 4 11.08 7.56 11.08 c0.72 0 1.44 -0.2 2.12 -0.56 z M116.32 25.439999999999998 c-0.32 0.88 -0.52 1.88 -0.52 2.92 c0 2.4 0.96 5.08 2.36 6.96 c0.28 -0.84 0.4 -1.76 0.4 -2.8 c0 -2.48 -0.8 -4.88 -2.24 -7.08 z M135.48 40 l0 -1.08 c1.32 -1.4 2.16 -3.32 2.16 -5.24 l0 -7.4 c0 -1.56 -0.64 -2.92 -1.68 -4 l-0.44 -0.48 l0 -1.12 l6.44 0 l0 2.24 c1.28 -0.76 2.76 -1.24 4.28 -1.24 c2.16 0 3.88 0.6 5.08 2 c1.52 -1 3.8 -2 6 -2 c4.68 0 7.24 2.84 7.24 9.76 l0 2.24 c0 1.92 0.72 3.84 2.08 5.24 l0 1.08 l-8.52 0 l0 -1.08 c1.36 -1.4 2.12 -3.32 2.12 -5.24 l0 -4.84 c-0.04 -3.12 -2.8 -6.16 -5.6 -5.36 c-0.76 0.24 -1.8 0.92 -2.36 1.6 c0.8 1.48 1.16 3.64 1.16 6.36 l0 2.24 c0 1.92 0.84 3.84 2.12 5.24 l0 1.08 l-8.52 0 l0 -1.08 c1.36 -1.4 2.08 -3.32 2.08 -5.24 l0 -4.84 c0 -3.12 -2.76 -6.2 -5.64 -5.44 c-0.96 0.28 -1.52 1.24 -1.52 2.28 l0 8.04 c0 1.88 0.64 3.8 1.96 5.2 l0 1.08 l-8.44 0 z"></path></g>
</svg>